<svg width="39" height="35" viewBox="0 0 39 35" fill="none" xmlns="http://www.w3.org/2000/svg">
<path d="M13.3816 4.15149L1.25767 13.6136C0.21798 14.425 0.915077 15.8662 2.34725 15.8662C3.22223 15.8662 3.93154 16.4506 3.93154 17.1714V23.195C3.93154 28.3773 3.93154 30.9684 5.88578 32.5783C7.84002 34.1882 10.9853 34.1882 17.2759 34.1882H21.7241C28.0147 34.1882 31.16 34.1882 33.1142 32.5783C35.0685 30.9684 35.0685 28.3773 35.0685 23.195V17.1714C35.0685 16.4506 35.7778 15.8662 36.6527 15.8662C38.0849 15.8662 38.782 14.425 37.7423 13.6136L25.6184 4.15149C22.7211 1.89032 21.2725 0.759738 19.5 0.759738C17.7275 0.759738 16.2789 1.89032 13.3816 4.15149Z" stroke="white" stroke-width="1.5" stroke-linecap="round" stroke-linejoin="round"/>
<path d="M19.5 24.9025H19.5187" stroke="white" stroke-width="2" stroke-linecap="round" stroke-linejoin="round"/>
</svg>
