<svg width="32" height="32" viewBox="0 0 32 32" fill="none" xmlns="http://www.w3.org/2000/svg">
<path d="M31.2381 15.888C31.2431 18.8916 30.3433 21.8282 28.6544 24.3202C27.2616 26.3827 25.3783 28.0728 23.1712 29.2409C20.9641 30.409 18.5011 31.0192 16 31.0175C13.4989 31.0192 11.0359 30.409 8.82881 29.2409C6.6217 28.0728 4.73847 26.3827 3.34563 24.3202C2.01946 22.3574 1.17488 20.1134 0.879609 17.7681C0.584335 15.4228 0.846575 13.0415 1.64531 10.815C2.44404 8.58847 3.75705 6.57873 5.47907 4.94686C7.2011 3.31499 9.28424 2.10639 11.5615 1.41795C13.8388 0.729505 16.2468 0.580369 18.5926 0.982496C20.9384 1.38462 23.1566 2.32683 25.0696 3.73358C26.9825 5.14032 28.5369 6.97249 29.6081 9.08319C30.6793 11.1939 31.2375 13.5244 31.2381 15.888Z" stroke="black" stroke-width="1.5"/>
</svg>
