<svg width="18" height="12" viewBox="0 0 18 12" fill="none" xmlns="http://www.w3.org/2000/svg">
<path fill-rule="evenodd" clip-rule="evenodd" d="M15.0073 9.11574C15.8186 8.38328 16.484 7.6416 16.9583 7.06571C17.3465 6.59444 17.5405 6.35881 17.5405 6C17.5405 5.64119 17.3465 5.40556 16.9583 4.93429C15.5382 3.21014 12.406 0 8.77027 0C7.93078 0 7.11814 0.171148 6.34722 0.455633L8.89409 3.00251C10.4525 3.06577 11.7045 4.31781 11.7678 5.87618L15.0073 9.11574ZM6.16334 4.5144C5.91321 4.95239 5.77027 5.4595 5.77027 6C5.77027 7.65685 7.11342 9 8.77027 9C9.31077 9 9.81788 8.85706 10.2559 8.60693L12.5575 10.9085C11.4063 11.5555 10.1231 12 8.77027 12C5.13454 12 2.00233 8.78986 0.582243 7.06571C0.194081 6.59444 0 6.35881 0 6C0 5.64119 0.194081 5.40556 0.582243 4.93429C1.25567 4.11667 2.31411 2.96489 3.62869 1.97974L6.16334 4.5144Z" fill="#33363F"/>
</svg>
