<svg width="17" height="17" viewBox="0 0 17 17" fill="none" xmlns="http://www.w3.org/2000/svg">
<path d="M15.5833 7.43754V6.88326C15.5833 5.50937 15.5833 4.82242 15.1684 4.39561C14.7534 3.96879 14.0856 3.96879 12.75 3.96879H11.2776C10.6278 3.96879 10.6224 3.96753 10.0381 3.67512L7.6782 2.49418C6.69289 2.00111 6.20023 1.75458 5.67539 1.77171C5.15056 1.78884 4.67409 2.06702 3.72115 2.62336L2.85141 3.13113C2.15144 3.53979 1.80146 3.74412 1.60904 4.08404C1.41663 4.42396 1.41663 4.83791 1.41663 5.66581V11.4862C1.41663 12.574 1.41663 13.1179 1.65906 13.4206C1.82038 13.622 2.04645 13.7574 2.29638 13.8023C2.67198 13.8698 3.13184 13.6013 4.05154 13.0644C4.67606 12.6997 5.27712 12.3211 6.02424 12.4237C6.65028 12.5098 7.23204 12.9048 7.79163 13.1848" stroke="#141B34" stroke-width="1.5" stroke-linecap="round" stroke-linejoin="round"/>
<path d="M5.66663 1.77087L5.66663 12.3959" stroke="#141B34" stroke-width="1.5" stroke-linejoin="round"/>
<path d="M10.625 3.89587V6.72921" stroke="#141B34" stroke-width="1.5" stroke-linecap="round" stroke-linejoin="round"/>
<path d="M12.3958 8.5C14.1207 8.5 15.5833 9.92835 15.5833 11.6612C15.5833 13.4217 14.0969 14.6571 12.7241 15.4972C12.624 15.5536 12.5109 15.5833 12.3958 15.5833C12.2806 15.5833 12.1675 15.5536 12.0674 15.4972C10.6971 14.6489 9.20825 13.4278 9.20825 11.6612C9.20825 9.92835 10.6708 8.5 12.3958 8.5Z" stroke="#141B34" stroke-width="1.5"/>
<path d="M12.3958 11.6875H12.4021" stroke="#141B34" stroke-width="2" stroke-linecap="round" stroke-linejoin="round"/>
</svg>
