<svg width="26" height="26" viewBox="0 0 26 26" fill="none" xmlns="http://www.w3.org/2000/svg">
<path fill-rule="evenodd" clip-rule="evenodd" d="M19.5579 15.6357C20.8892 13.8941 21.5167 11.7032 21.3126 9.50887C21.1085 7.3145 20.0882 5.28144 18.4593 3.82331C16.8303 2.36518 14.7152 1.5915 12.544 1.65967C10.3729 1.72784 8.30889 2.63274 6.77194 4.19028C5.23364 5.7489 4.33894 7.84406 4.27015 10.0488C4.20136 12.2535 4.96366 14.4019 6.40171 16.0562C7.83976 17.7104 9.84533 18.746 12.0097 18.9519C14.1741 19.1578 16.3344 18.5185 18.0504 17.1643L18.0963 17.213L22.6252 21.8096C22.7244 21.9103 22.8422 21.9901 22.9718 22.0446C23.1014 22.0991 23.2403 22.1271 23.3806 22.1271C23.5208 22.1271 23.6598 22.0991 23.7894 22.0446C23.919 21.9901 24.0367 21.9103 24.1359 21.8096C24.2351 21.709 24.3138 21.5895 24.3675 21.458C24.4212 21.3265 24.4488 21.1855 24.4488 21.0432C24.4488 20.9008 24.4212 20.7599 24.3675 20.6284C24.3138 20.4968 24.2351 20.3774 24.1359 20.2767L19.606 15.6812C19.5904 15.6656 19.5743 15.6504 19.5579 15.6357ZM17.3415 5.7232C17.9443 6.32497 18.4237 7.04189 18.7521 7.8326C19.0804 8.62331 19.2513 9.47217 19.2547 10.3302C19.2581 11.1882 19.0941 12.0385 18.7721 12.8319C18.4501 13.6253 17.9765 14.3461 17.3785 14.9529C16.7806 15.5596 16.0702 16.0402 15.2883 16.3669C14.5064 16.6937 13.6685 16.8601 12.8229 16.8566C11.9773 16.8531 11.1407 16.6798 10.3615 16.3466C9.58221 16.0134 8.87569 15.5269 8.28264 14.9153C7.09748 13.6929 6.43633 12.0449 6.44321 10.3302C6.45009 8.61548 7.12444 6.97298 8.31938 5.76048C9.51431 4.54798 11.133 3.86371 12.8229 3.85673C14.5127 3.84974 16.1369 4.52061 17.3415 5.7232Z" fill="black"/>
</svg>
