<svg width="39" height="36" viewBox="0 0 39 36" fill="none" xmlns="http://www.w3.org/2000/svg">
<path d="M32.5 13.5C31.2079 7.52182 25.2083 3 18.0038 3C9.85642 3 3.25 8.78282 3.25 15.9151C3.25 19.3419 4.77456 22.4556 7.26139 24.7662C7.80892 25.275 8.17449 25.97 8.02695 26.6854C7.78346 27.8551 7.23166 28.9462 6.4237 29.8555C8.54949 30.2173 10.7599 29.8916 12.6555 28.9691C13.3256 28.643 13.6607 28.48 13.8971 28.447C14.0626 28.4238 14.2782 28.4454 14.625 28.5004" stroke="white" stroke-width="1.5" stroke-linecap="round" stroke-linejoin="round"/>
<path d="M17.875 24.3925C17.875 28.7511 21.877 32.2851 26.8125 32.2851C27.3928 32.2858 27.9715 32.2362 28.5415 32.1374C28.9518 32.0663 29.157 32.0307 29.3002 32.0509C29.4435 32.0711 29.6464 32.1708 30.0524 32.37C31.2007 32.9337 32.5397 33.1328 33.8274 32.9117C33.338 32.356 33.0037 31.6892 32.8562 30.9744C32.7669 30.5372 32.9883 30.1125 33.32 29.8016C34.8265 28.3895 35.75 26.4867 35.75 24.3925C35.75 20.0339 31.748 16.5 26.8125 16.5C21.877 16.5 17.875 20.0339 17.875 24.3925Z" stroke="white" stroke-width="1.5" stroke-linejoin="round"/>
</svg>
