<svg width="26" height="27" viewBox="0 0 26 27" fill="none" xmlns="http://www.w3.org/2000/svg">
<g clip-path="url(#clip0_24_1153)">
<path d="M13 26.0357C19.6669 26.0357 25.0714 20.4232 25.0714 13.4999C25.0714 6.57666 19.6669 0.964233 13 0.964233C6.33315 0.964233 0.928589 6.57666 0.928589 13.4999C0.928589 20.4232 6.33315 26.0357 13 26.0357Z" stroke="#4590C0" stroke-linecap="round" stroke-linejoin="round"/>
<path d="M13 0.964233V26.0357" stroke="#4590C0" stroke-linecap="round" stroke-linejoin="round"/>
<path d="M3.90002 21.7349C5.26082 20.8746 6.38559 19.6652 7.16617 18.223C7.94676 16.7808 8.3569 15.1543 8.35717 13.4999C8.3569 11.8455 7.94676 10.219 7.16617 8.77678C6.38559 7.33458 5.26082 6.12518 3.90002 5.26489" stroke="#4590C0" stroke-linecap="round" stroke-linejoin="round"/>
<path d="M22.1 5.26489C20.7397 6.1255 19.6154 7.33504 18.8353 8.77722C18.0551 10.2194 17.6454 11.8457 17.6454 13.4999C17.6454 15.154 18.0551 16.7804 18.8353 18.2226C19.6154 19.6647 20.7397 20.8743 22.1 21.7349" stroke="#4590C0" stroke-linecap="round" stroke-linejoin="round"/>
</g>
<defs>
<clipPath id="clip0_24_1153">
<rect width="26" height="27" fill="white"/>
</clipPath>
</defs>
</svg>
