<svg width="24" height="24" viewBox="0 0 24 24" fill="none" xmlns="http://www.w3.org/2000/svg">
<path d="M19 17C19.6281 16.8651 20.1209 16.6488 20.5376 16.3018C20.7401 16.1331 20.9258 15.9446 21.092 15.7391C22 14.6163 22 12.9481 22 9.61164C22 6.27522 22 4.60701 21.092 3.48419C20.9258 3.27864 20.7401 3.09016 20.5376 2.92147C19.4312 2 17.7875 2 14.5 2L9.5 2C6.21252 2 4.56878 2 3.46243 2.92147C3.25989 3.09016 3.07418 3.27864 2.90796 3.48419C2 4.60701 2 6.27522 2 9.61164C2 12.9481 2 14.6163 2.90796 15.7391C3.07418 15.9446 3.25989 16.1331 3.46243 16.3018C3.87905 16.6488 4.37188 16.8651 5 17" stroke="#141B34" stroke-width="1.5" stroke-linecap="round"/>
<path d="M18 13H16.6667M16.6667 13L15.5 22M16.6667 13H12M6 13H7.33333M7.33333 13L8.5 22M7.33333 13L12 13M12 13V22" stroke="#141B34" stroke-width="1.5" stroke-linecap="round" stroke-linejoin="round"/>
<path d="M16 10C15.9411 8.04825 14.7382 8 13.0022 8L10.9978 8C9.26181 8 8.05893 8.04825 8 10" stroke="#141B34" stroke-width="1.5" stroke-linecap="round" stroke-linejoin="round"/>
<path d="M16 16.5H8M15.5556 20H8.44444" stroke="#141B34" stroke-width="1.5" stroke-linejoin="round"/>
</svg>
