<svg width="32" height="29" viewBox="0 0 32 29" fill="none" xmlns="http://www.w3.org/2000/svg">
<path d="M29.3334 25.375H28.0001C26.0649 25.375 24.3707 24.3372 24.0001 22.9584C23.6295 24.3372 21.9352 25.375 20.0001 25.375C18.0649 25.375 16.3707 24.3372 16.0001 22.9584C15.6295 24.3372 13.9352 25.375 12.0001 25.375C10.0649 25.375 8.3707 24.3372 8.00008 22.9584C7.62947 24.3372 5.93525 25.375 4.00008 25.375H2.66675" stroke="#141B34" stroke-width="1.5" stroke-linecap="round" stroke-linejoin="round"/>
<path d="M25.3334 3.625L24.9802 3.7317C23.2201 4.26338 22.3401 4.52922 21.8367 5.16212C21.3334 5.79501 21.3334 6.63568 21.3334 8.317L21.3334 20.5417" stroke="#141B34" stroke-width="1.5" stroke-linecap="round" stroke-linejoin="round"/>
<path d="M14.6667 3.625L14.3135 3.7317C12.5535 4.26338 11.6735 4.52922 11.1701 5.16212C10.6667 5.79501 10.6667 6.63568 10.6667 8.317L10.6667 20.5417" stroke="#141B34" stroke-width="1.5" stroke-linecap="round" stroke-linejoin="round"/>
<path d="M10.6667 8.45837H21.3334M10.6667 13.2917H21.3334M10.6667 18.125H21.3334" stroke="#141B34" stroke-width="1.5" stroke-linecap="round" stroke-linejoin="round"/>
</svg>
