<svg width="20" height="19" viewBox="0 0 20 19" fill="none" xmlns="http://www.w3.org/2000/svg">
<g clip-path="url(#clip0_24_984)">
<path d="M15.0001 0.678467H5.00007C2.63314 0.678467 0.714355 2.50131 0.714355 4.7499V14.2499C0.714355 16.4985 2.63314 18.3213 5.00007 18.3213H15.0001C17.367 18.3213 19.2858 16.4985 19.2858 14.2499V4.7499C19.2858 2.50131 17.367 0.678467 15.0001 0.678467Z" stroke="#000001" stroke-linecap="round" stroke-linejoin="round"/>
<path d="M5 10.8462L8.15385 13.2431C8.23855 13.3093 8.33773 13.3568 8.44418 13.3821C8.55063 13.4074 8.66167 13.4098 8.76923 13.3892C8.87782 13.3699 8.98075 13.3285 9.07101 13.268C9.16127 13.2075 9.23675 13.1292 9.29231 13.0385L14.2308 5" stroke="#000001" stroke-linecap="round" stroke-linejoin="round"/>
</g>
<defs>
<clipPath id="clip0_24_984">
<rect width="20" height="19" fill="white"/>
</clipPath>
</defs>
</svg>
