<svg width="24" height="27" viewBox="0 0 24 27" fill="none" xmlns="http://www.w3.org/2000/svg">
<path d="M3.44796 12.6138C3.35612 14.3588 3.4617 16.2162 1.90267 17.3855C1.17705 17.9297 0.75 18.7838 0.75 19.6908C0.75 20.9385 1.72725 22 3 22H21C22.2727 22 23.25 20.9385 23.25 19.6908C23.25 18.7838 22.823 17.9297 22.0973 17.3855C20.5383 16.2162 20.6439 14.3588 20.552 12.6138C20.3126 8.06528 16.5548 4.5 12 4.5C7.44522 4.5 3.68735 8.06528 3.44796 12.6138Z" fill="#FFD800" stroke="#FFD800" stroke-width="1.5" stroke-linecap="round" stroke-linejoin="round"/>
<path d="M10.125 2.15625C10.125 3.19178 10.9645 4.5 12 4.5C13.0355 4.5 13.875 3.19178 13.875 2.15625C13.875 1.12072 13.0355 0.75 12 0.75C10.9645 0.75 10.125 1.12072 10.125 2.15625Z" fill="#FFD800" stroke="#FFD800" stroke-width="1.5"/>
<path d="M15.75 22C15.75 24.0711 14.0711 25.75 12 25.75C9.92893 25.75 8.25 24.0711 8.25 22" stroke="#FFD800" stroke-width="1.5" stroke-linecap="round" stroke-linejoin="round"/>
</svg>
