<svg width="27" height="26" viewBox="0 0 27 26" fill="none" xmlns="http://www.w3.org/2000/svg">
<path d="M15.3334 4.6129C15.3334 5.77032 14.3708 6.70968 13.1847 6.70968V9.2258C14.4384 9.2258 15.6408 8.7398 16.5273 7.87472C17.4139 7.00963 17.9119 5.83632 17.9119 4.6129H15.3334ZM13.1847 6.70968C11.9986 6.70968 11.0359 5.77032 11.0359 4.6129H8.45745C8.45745 5.83632 8.95549 7.00963 9.84202 7.87472C10.7285 8.7398 11.9309 9.2258 13.1847 9.2258V6.70968ZM11.0359 4.6129C11.0359 3.45548 11.9986 2.51613 13.1847 2.51613V0C11.9309 0 10.7285 0.486001 9.84202 1.35109C8.95549 2.21617 8.45745 3.38948 8.45745 4.6129H11.0359ZM13.1847 2.51613C14.3708 2.51613 15.3334 3.45548 15.3334 4.6129H17.9119C17.9119 3.38948 17.4139 2.21617 16.5273 1.35109C15.6408 0.486001 14.4384 0 13.1847 0V2.51613ZM1.43708 19.4681L0.201122 19.1092L0 19.7667L0.458971 20.2867L1.43708 19.4681ZM24.9323 19.4681L25.9121 20.2884L26.3694 19.7684L26.1682 19.1092L24.9323 19.4681ZM8.0277 15.9355H18.3417V13.4194H8.0277V15.9355ZM8.0277 13.4194C6.26934 13.4194 4.55794 13.9732 3.14787 14.9983C1.73781 16.0234 0.704357 17.4651 0.201122 19.1092L2.67303 19.8271C3.01775 18.7026 3.72494 17.7166 4.68959 17.0155C5.65424 16.3145 6.8249 15.9357 8.0277 15.9355V13.4194ZM13.1847 23.4839C11.1381 23.4862 9.11532 23.0551 7.25601 22.2205C5.3967 21.3859 3.7451 20.1675 2.41519 18.6495L0.458971 20.2867C2.03092 22.0798 3.98264 23.5207 6.17959 24.5067C8.37654 25.4928 10.7665 26.0022 13.1847 26V23.4839ZM18.3417 15.9355C20.8686 15.9355 23.0087 17.576 23.6963 19.8271L26.1682 19.1092C25.665 17.4651 24.6315 16.0234 23.2215 14.9983C21.8114 13.9732 20.1 13.4194 18.3417 13.4194V15.9355ZM23.9542 18.6495C22.6242 20.1675 20.9726 21.3859 19.1133 22.2205C17.254 23.0551 15.2313 23.4862 13.1847 23.4839V26C15.6029 26.0022 17.9928 25.4928 20.1898 24.5067C22.3867 23.5207 24.3401 22.0815 25.9121 20.2884L23.9542 18.6495Z" fill="black"/>
</svg>
