<svg width="36" height="36" viewBox="0 0 36 36" fill="none" xmlns="http://www.w3.org/2000/svg">
<path d="M30 13.5C28.8073 7.52182 23.2692 3 16.6189 3C9.09823 3 3 8.78282 3 15.9151C3 19.3419 4.40728 22.4556 6.70282 24.7662C7.20824 25.275 7.54568 25.97 7.40949 26.6854C7.18474 27.8551 6.67538 28.9462 5.92957 29.8555C7.89184 30.2173 9.9322 29.8916 11.682 28.9691C12.3006 28.643 12.6099 28.48 12.8281 28.447C12.9809 28.4238 13.1799 28.4454 13.5 28.5004" stroke="white" stroke-width="1.5" stroke-linecap="round" stroke-linejoin="round"/>
<path d="M16.5 24.3925C16.5 28.7511 20.1942 32.2851 24.75 32.2851C25.2857 32.2858 25.8198 32.2362 26.346 32.1374C26.7248 32.0663 26.9142 32.0307 27.0464 32.0509C27.1786 32.0711 27.3659 32.1708 27.7406 32.37C28.8006 32.9337 30.0366 33.1328 31.2253 32.9117C30.7735 32.356 30.465 31.6892 30.3288 30.9744C30.2463 30.5372 30.4508 30.1125 30.7569 29.8016C32.1475 28.3895 33 26.4867 33 24.3925C33 20.0339 29.3058 16.5 24.75 16.5C20.1942 16.5 16.5 20.0339 16.5 24.3925Z" stroke="white" stroke-width="1.5" stroke-linejoin="round"/>
</svg>
