<svg width="18" height="18" viewBox="0 0 18 18" fill="none" xmlns="http://www.w3.org/2000/svg">
<path d="M10.9615 8.34619H12.2692V14.2308" stroke="#000001" stroke-linecap="round" stroke-linejoin="round"/>
<path d="M10.9615 14.2308H13.5769" stroke="#000001" stroke-linecap="round" stroke-linejoin="round"/>
<path d="M1.80769 3.11536C1.46087 3.11536 1.12825 3.25313 0.883014 3.49837C0.637774 3.74361 0.5 4.07623 0.5 4.42305V16.1923C0.5 16.5391 0.637774 16.8717 0.883014 17.117C1.12825 17.3622 1.46087 17.5 1.80769 17.5H16.1923C16.5391 17.5 16.8717 17.3622 17.117 17.117C17.3622 16.8717 17.5 16.5391 17.5 16.1923V4.42305C17.5 4.07623 17.3622 3.74361 17.117 3.49837C16.8717 3.25313 16.5391 3.11536 16.1923 3.11536H13.5769" stroke="#000001" stroke-linecap="round" stroke-linejoin="round"/>
<path d="M4.4231 0.5V5.73077" stroke="#000001" stroke-linecap="round" stroke-linejoin="round"/>
<path d="M13.5769 0.5V5.73077" stroke="#000001" stroke-linecap="round" stroke-linejoin="round"/>
<path d="M4.4231 3.11536H10.9616" stroke="#000001" stroke-linecap="round" stroke-linejoin="round"/>
<path d="M4.4231 8.34619H7.69233L5.73079 10.9616C5.73079 10.9616 7.69233 10.9616 7.69233 12.2693C7.72923 12.5355 7.70392 12.8067 7.61839 13.0615C7.53286 13.3163 7.38944 13.5478 7.19939 13.7379C7.00933 13.9279 6.77781 14.0713 6.523 14.1569C6.26819 14.2424 5.99702 14.2677 5.73079 14.2308H4.4231" stroke="#000001" stroke-linecap="round" stroke-linejoin="round"/>
</svg>
