<svg width="35" height="35" viewBox="0 0 35 35" fill="none" xmlns="http://www.w3.org/2000/svg">
<path d="M7.52262 16.7578C7.41547 18.7936 7.53865 20.9607 5.71978 22.3248C4.87322 22.9598 4.375 23.9562 4.375 25.0144C4.375 26.47 5.51513 27.7084 7 27.7084H28C29.4849 27.7084 30.625 26.47 30.625 25.0144C30.625 23.9562 30.1268 22.9598 29.2802 22.3248C27.4614 20.9607 27.5845 18.7936 27.4774 16.7578C27.1981 11.4512 22.8139 7.29175 17.5 7.29175C12.1861 7.29175 7.80191 11.4512 7.52262 16.7578Z" stroke="black" stroke-width="1.5" stroke-linecap="round" stroke-linejoin="round"/>
<path d="M15.3125 4.55737C15.3125 5.7655 16.2919 7.29175 17.5 7.29175C18.7081 7.29175 19.6875 5.7655 19.6875 4.55737C19.6875 3.34925 18.7081 2.91675 17.5 2.91675C16.2919 2.91675 15.3125 3.34925 15.3125 4.55737Z" stroke="black" stroke-width="1.5"/>
<path d="M21.875 27.7085C21.875 30.1247 19.9162 32.0835 17.5 32.0835C15.0838 32.0835 13.125 30.1247 13.125 27.7085" stroke="black" stroke-width="1.5" stroke-linecap="round" stroke-linejoin="round"/>
</svg>
