<svg width="17" height="17" viewBox="0 0 17 17" fill="none" xmlns="http://www.w3.org/2000/svg">
<path d="M13.3572 6.67859H3.64287C2.97224 6.67859 2.42859 7.22224 2.42859 7.89287V15.1786C2.42859 15.8492 2.97224 16.3929 3.64287 16.3929H13.3572C14.0278 16.3929 14.5714 15.8492 14.5714 15.1786V7.89287C14.5714 7.22224 14.0278 6.67859 13.3572 6.67859Z" stroke="#000001" stroke-linecap="round" stroke-linejoin="round"/>
<path d="M12.75 6.67861V4.85718C12.75 3.73001 12.3022 2.649 11.5052 1.85197C10.7082 1.05494 9.62717 0.607178 8.5 0.607178C7.37283 0.607178 6.29183 1.05494 5.4948 1.85197C4.69777 2.649 4.25 3.73001 4.25 4.85718V6.67861" stroke="#000001" stroke-linecap="round" stroke-linejoin="round"/>
<path d="M8.49997 12.1429C8.83528 12.1429 9.10711 11.871 9.10711 11.5357C9.10711 11.2004 8.83528 10.9286 8.49997 10.9286C8.16465 10.9286 7.89282 11.2004 7.89282 11.5357C7.89282 11.871 8.16465 12.1429 8.49997 12.1429Z" stroke="#000001" stroke-linecap="round" stroke-linejoin="round"/>
</svg>
