<svg width="32" height="32" viewBox="0 0 32 32" fill="none" xmlns="http://www.w3.org/2000/svg">
<path d="M31.2381 15.888C31.2431 18.8916 30.3433 21.8282 28.6544 24.3202C27.2615 26.3827 25.3783 28.0728 23.1712 29.2409C20.9641 30.409 18.5011 31.0192 16 31.0175C13.4989 31.0192 11.0359 30.409 8.82878 29.2409C6.62167 28.0728 4.73844 26.3827 3.3456 24.3202C2.01943 22.3574 1.17485 20.1134 0.879578 17.7681C0.584304 15.4228 0.846544 13.0415 1.64528 10.815C2.44401 8.58847 3.75702 6.57873 5.47904 4.94686C7.20107 3.31499 9.28421 2.10639 11.5615 1.41795C13.8387 0.729505 16.2468 0.580369 18.5926 0.982496C20.9383 1.38462 23.1566 2.32683 25.0695 3.73358C26.9824 5.14032 28.5368 6.97249 29.608 9.08319C30.6793 11.1939 31.2375 13.5244 31.2381 15.888Z" stroke="black" stroke-width="1.5"/>
<path d="M18.1594 9.7442C18.1594 10.9074 17.192 11.8514 16 11.8514V14.3801C17.26 14.3801 18.4684 13.8917 19.3593 13.0223C20.2503 12.1529 20.7508 10.9737 20.7508 9.7442H18.1594ZM16 11.8514C14.8079 11.8514 13.8405 10.9074 13.8405 9.7442H11.2491C11.2491 10.9737 11.7497 12.1529 12.6406 13.0223C13.5316 13.8917 14.74 14.3801 16 14.3801V11.8514ZM13.8405 9.7442C13.8405 8.581 14.8079 7.63695 16 7.63695V5.10826C14.74 5.10826 13.5316 5.59669 12.6406 6.46609C11.7497 7.3355 11.2491 8.51467 11.2491 9.7442H13.8405ZM16 7.63695C17.192 7.63695 18.1594 8.581 18.1594 9.7442H20.7508C20.7508 8.51467 20.2503 7.3355 19.3593 6.46609C18.4684 5.59669 17.26 5.10826 16 5.10826V7.63695ZM4.1937 24.6736L2.95157 24.3128L2.74944 24.9737L3.21071 25.4963L4.1937 24.6736ZM27.8062 24.6736L28.7909 25.498L29.2505 24.9754L29.0483 24.3128L27.8062 24.6736ZM10.8172 21.1233H21.1827V18.5946H10.8172V21.1233ZM10.8172 18.5946C9.05009 18.5947 7.33014 19.1512 5.91303 20.1814C4.49593 21.2116 3.45732 22.6606 2.95157 24.3128L5.43582 25.0344C5.78226 23.9043 6.49299 22.9134 7.46245 22.2088C8.43192 21.5042 9.60842 21.1235 10.8172 21.1233V18.5946ZM16 28.7094C13.9431 28.7117 11.9103 28.2785 10.0417 27.4397C8.1731 26.6009 6.51325 25.3765 5.17669 23.8509L3.21071 25.4963C4.79051 27.2983 6.75197 28.7464 8.95989 29.7374C11.1678 30.7283 13.5697 31.2403 16 31.2381V28.7094ZM21.1827 21.1233C23.7222 21.1233 25.8731 22.772 26.5641 25.0344L29.0483 24.3128C28.5426 22.6606 27.504 21.2116 26.0869 20.1814C24.6698 19.1512 22.9498 18.5947 21.1827 18.5946V21.1233ZM26.8232 23.8509C25.4867 25.3765 23.8268 26.6009 21.9582 27.4397C20.0896 28.2785 18.0568 28.7117 16 28.7094V31.2381C18.4302 31.2403 20.8321 30.7283 23.04 29.7374C25.2479 28.7464 27.2111 27.3 28.7909 25.498L26.8232 23.8509Z" fill="black"/>
</svg>
